<svg xmlns="http://www.w3.org/2000/svg" xmlns:xlink="http://www.w3.org/1999/xlink" width="1024" zoomAndPan="magnify" viewBox="0 0 768 191.999996" height="256" preserveAspectRatio="xMidYMid meet" version="1.0"><defs><g/><clipPath id="4d9cb3889e"><path d="M 0 0 L 230 0 L 230 192 L 0 192 Z M 0 0 " clip-rule="nonzero"/></clipPath><clipPath id="04f4ce88f0"><path d="M -60.988281 75.859375 L 135.234375 -48.851562 L 230.980469 101.796875 L 34.757812 226.507812 Z M -60.988281 75.859375 " clip-rule="nonzero"/></clipPath><clipPath id="2a51866680"><path d="M 10 29 L 138 29 L 138 165 L 10 165 Z M 10 29 " clip-rule="nonzero"/></clipPath><clipPath id="6441bc8003"><path d="M -60.988281 75.859375 L 135.234375 -48.851562 L 230.980469 101.796875 L 34.757812 226.507812 Z M -60.988281 75.859375 " clip-rule="nonzero"/></clipPath><clipPath id="e7593778aa"><path d="M 135.324219 -48.910156 L -60.898438 75.804688 L 34.847656 226.453125 L 231.070312 101.738281 Z M 135.324219 -48.910156 " clip-rule="nonzero"/></clipPath><clipPath id="7641265a0c"><path d="M 118 27 L 185 27 L 185 155 L 118 155 Z M 118 27 " clip-rule="nonzero"/></clipPath><clipPath id="5248c6616e"><path d="M -60.988281 75.859375 L 135.234375 -48.851562 L 230.980469 101.796875 L 34.757812 226.507812 Z M -60.988281 75.859375 " clip-rule="nonzero"/></clipPath><clipPath id="f3feb0fcda"><path d="M 135.324219 -48.910156 L -60.898438 75.804688 L 34.847656 226.453125 L 231.070312 101.738281 Z M 135.324219 -48.910156 " clip-rule="nonzero"/></clipPath><clipPath id="53e999410e"><rect x="0" width="230" y="0" height="192"/></clipPath></defs><g clip-path="url(#4d9cb3889e)"><g clip-path="url(#04f4ce88f0)"><g transform="matrix(1, 0, 0, 1, 0, 0)"><g clip-path="url(#53e999410e)"><g clip-path="url(#2a51866680)"><g clip-path="url(#6441bc8003)"><g clip-path="url(#e7593778aa)"><path fill="#81c995" d="M 128.667969 162.003906 C 128.402344 161.910156 128.132812 161.820312 127.867188 161.730469 C 125.398438 160.828125 122.902344 159.90625 120.375 158.984375 C 117.886719 157.976562 115.378906 156.960938 112.84375 155.957031 C 110.347656 154.863281 107.859375 153.769531 105.355469 152.671875 C 102.894531 151.488281 100.414062 150.347656 97.980469 149.132812 C 96.761719 148.503906 95.5625 147.878906 94.359375 147.261719 C 93.15625 146.644531 91.957031 146.027344 90.785156 145.355469 C 88.433594 144.050781 86.09375 142.765625 83.84375 141.378906 C 82.71875 140.691406 81.585938 140.03125 80.480469 139.332031 C 79.394531 138.625 78.300781 137.929688 77.226562 137.222656 C 76.136719 136.550781 75.089844 135.828125 74.058594 135.101562 C 73.023438 134.378906 72 133.667969 70.988281 132.957031 C 69.015625 131.46875 67.03125 130.089844 65.207031 128.589844 C 61.484375 125.691406 58.152344 122.714844 55.152344 119.882812 C 52.152344 117.058594 49.582031 114.261719 47.367188 111.730469 C 45.152344 109.199219 43.375 106.847656 41.972656 104.875 C 39.15625 100.929688 37.957031 98.367188 37.957031 98.367188 L 38.347656 98.128906 C 38.347656 98.128906 38.695312 98.71875 39.410156 99.773438 C 40.132812 100.835938 41.246094 102.351562 42.773438 104.179688 C 44.308594 105.992188 46.222656 108.164062 48.582031 110.460938 C 50.953125 112.761719 53.675781 115.289062 56.824219 117.792969 C 59.964844 120.3125 63.449219 122.957031 67.300781 125.464844 C 69.1875 126.777344 71.226562 127.972656 73.253906 129.257812 C 74.304688 129.859375 75.347656 130.476562 76.414062 131.085938 C 77.464844 131.714844 78.539062 132.328125 79.648438 132.902344 C 80.75 133.488281 81.855469 134.082031 82.972656 134.679688 C 84.101562 135.277344 85.253906 135.816406 86.410156 136.386719 C 88.6875 137.5625 91.066406 138.617188 93.441406 139.6875 C 94.628906 140.242188 95.828125 140.757812 97.0625 141.253906 C 98.265625 141.757812 99.488281 142.257812 100.707031 142.78125 C 103.160156 143.757812 105.664062 144.660156 108.132812 145.609375 C 110.644531 146.476562 113.148438 147.335938 115.644531 148.195312 C 118.171875 148.96875 120.691406 149.746094 123.183594 150.515625 C 125.695312 151.207031 128.195312 151.894531 130.65625 152.578125 C 132.972656 153.183594 135.277344 153.714844 137.542969 154.285156 C 137.261719 141.6875 135.503906 130.273438 132.324219 120.03125 C 128.8125 108.660156 123.570312 98.726562 116.707031 90.230469 C 103.746094 74.152344 85 63.1875 61.277344 57.25 C 26.378906 48.527344 15.6875 36.597656 12.433594 30.371094 C 12.144531 29.84375 11.546875 29.765625 11.125 30.035156 C 10.878906 30.191406 10.699219 30.464844 10.667969 30.828125 C 1.632812 174.371094 98.382812 167.585938 128.667969 162.003906 " fill-opacity="1" fill-rule="nonzero"/></g></g></g><g clip-path="url(#7641265a0c)"><g clip-path="url(#5248c6616e)"><g clip-path="url(#f3feb0fcda)"><path fill="#81c995" d="M 142.265625 154.183594 L 142.273438 154.355469 C 177.398438 135.867188 189.808594 106.621094 181.988281 70.640625 C 176.230469 44.152344 180.730469 32.949219 183.839844 28.667969 C 184.261719 28.082031 183.636719 27.351562 182.945312 27.628906 C 142.398438 44.59375 124.359375 65.054688 118.167969 84.632812 C 124.359375 91.71875 129.390625 99.777344 133.214844 108.765625 C 133.242188 108.542969 133.261719 108.324219 133.292969 108.109375 C 133.382812 107.148438 133.527344 106.195312 133.667969 105.257812 C 133.808594 104.320312 133.953125 103.390625 134.089844 102.472656 C 134.4375 100.644531 134.710938 98.839844 135.113281 97.109375 C 135.824219 93.625 136.722656 90.382812 137.644531 87.410156 C 138.546875 84.441406 139.574219 81.769531 140.539062 79.429688 C 141.511719 77.085938 142.511719 75.105469 143.375 73.496094 C 145.101562 70.28125 146.429688 68.613281 146.429688 68.613281 L 146.726562 68.800781 C 146.726562 68.800781 146.4375 69.226562 145.964844 70.066406 C 145.492188 70.910156 144.835938 72.167969 144.113281 73.808594 C 143.394531 75.449219 142.582031 77.472656 141.808594 79.828125 C 141.046875 82.195312 140.25 84.875 139.605469 87.84375 C 138.953125 90.804688 138.328125 94.039062 137.921875 97.480469 C 137.667969 99.191406 137.535156 100.96875 137.347656 102.769531 C 137.289062 103.675781 137.222656 104.585938 137.167969 105.515625 C 137.089844 106.433594 137.039062 107.363281 137.019531 108.304688 C 136.992188 109.242188 136.960938 110.191406 136.929688 111.144531 C 136.898438 112.105469 136.925781 113.058594 136.917969 114.035156 C 136.890625 115.75 136.953125 117.492188 137.015625 119.234375 C 140.226562 129.808594 141.988281 141.472656 142.265625 154.183594 " fill-opacity="1" fill-rule="nonzero"/></g></g></g></g></g></g></g><g fill="#737373" fill-opacity="1"><g transform="translate(191.482393, 137.624991)"><g><path d="M 8.25 0 L 8.25 -66.21875 L 25.09375 -66.21875 L 25.09375 -52.234375 C 26.132812 -55.179688 27.726562 -57.769531 29.875 -60 C 32.03125 -62.226562 34.5 -63.957031 37.28125 -65.1875 C 40.070312 -66.425781 42.941406 -67.046875 45.890625 -67.046875 C 51.953125 -67.046875 57.015625 -65.351562 61.078125 -61.96875 C 65.140625 -58.582031 67.648438 -53.984375 68.609375 -48.171875 C 69.554688 -52.148438 71.144531 -55.53125 73.375 -58.3125 C 75.613281 -61.101562 78.328125 -63.253906 81.515625 -64.765625 C 84.703125 -66.285156 88.125 -67.046875 91.78125 -67.046875 C 99.75 -67.046875 106.0625 -64.613281 110.71875 -59.75 C 115.382812 -54.894531 117.71875 -47.925781 117.71875 -38.84375 L 117.71875 0 L 100.875 0 L 100.875 -35.609375 C 100.875 -40.953125 99.519531 -45.132812 96.8125 -48.15625 C 94.101562 -51.1875 90.554688 -52.703125 86.171875 -52.703125 C 81.710938 -52.703125 78.125 -50.96875 75.40625 -47.5 C 72.695312 -44.039062 71.34375 -39.679688 71.34375 -34.421875 L 71.34375 0 L 54.625 0 L 54.625 -35.609375 C 54.625 -40.953125 53.265625 -45.132812 50.546875 -48.15625 C 47.835938 -51.1875 44.296875 -52.703125 39.921875 -52.703125 C 36.972656 -52.703125 34.378906 -51.90625 32.140625 -50.3125 C 29.910156 -48.71875 28.175781 -46.546875 26.9375 -43.796875 C 25.707031 -41.046875 25.09375 -37.921875 25.09375 -34.421875 L 25.09375 0 Z M 8.25 0 "/></g></g></g><g fill="#737373" fill-opacity="1"><g transform="translate(311.001962, 137.624991)"><g><path d="M 8.125 0 L 8.125 -66.21875 L 25.09375 -66.21875 L 25.09375 0 Z M 16.734375 -74.21875 C 13.390625 -74.21875 10.597656 -75.234375 8.359375 -77.265625 C 6.128906 -79.296875 5.015625 -81.828125 5.015625 -84.859375 C 5.015625 -87.878906 6.128906 -90.425781 8.359375 -92.5 C 10.597656 -94.570312 13.390625 -95.609375 16.734375 -95.609375 C 20.078125 -95.609375 22.863281 -94.570312 25.09375 -92.5 C 27.320312 -90.425781 28.4375 -87.878906 28.4375 -84.859375 C 28.4375 -81.828125 27.320312 -79.296875 25.09375 -77.265625 C 22.863281 -75.234375 20.078125 -74.21875 16.734375 -74.21875 Z M 16.734375 -74.21875 "/></g></g></g><g fill="#737373" fill-opacity="1"><g transform="translate(338.730492, 137.624991)"><g><path d="M 8.25 0 L 8.25 -66.21875 L 25.09375 -66.21875 L 25.09375 -52.234375 C 26.132812 -55.179688 27.726562 -57.769531 29.875 -60 C 32.03125 -62.226562 34.539062 -63.957031 37.40625 -65.1875 C 40.28125 -66.425781 43.226562 -67.046875 46.25 -67.046875 C 51.269531 -67.046875 55.671875 -65.929688 59.453125 -63.703125 C 63.242188 -61.472656 66.171875 -58.265625 68.234375 -54.078125 C 70.304688 -49.898438 71.34375 -44.863281 71.34375 -38.96875 L 71.34375 0 L 54.625 0 L 54.625 -35.859375 C 54.625 -41.117188 53.265625 -45.238281 50.546875 -48.21875 C 47.835938 -51.207031 44.296875 -52.703125 39.921875 -52.703125 C 36.972656 -52.703125 34.378906 -51.925781 32.140625 -50.375 C 29.910156 -48.820312 28.175781 -46.691406 26.9375 -43.984375 C 25.707031 -41.273438 25.09375 -38.164062 25.09375 -34.65625 L 25.09375 0 Z M 8.25 0 "/></g></g></g><g fill="#737373" fill-opacity="1"><g transform="translate(411.995975, 137.624991)"><g><path d="M 33.46875 0.84375 C 27.25 0.84375 22.328125 -1.007812 18.703125 -4.71875 C 15.078125 -8.425781 13.265625 -13.707031 13.265625 -20.5625 L 13.265625 -52.46875 L 2.984375 -52.46875 L 2.984375 -66.21875 L 44.9375 -66.21875 L 44.9375 -52.46875 L 30.359375 -52.46875 L 30.359375 -19.953125 C 30.359375 -17.890625 30.953125 -16.335938 32.140625 -15.296875 C 33.335938 -14.265625 34.695312 -13.75 36.21875 -13.75 C 37.164062 -13.75 38.054688 -13.90625 38.890625 -14.21875 C 39.734375 -14.539062 40.554688 -15.019531 41.359375 -15.65625 L 47.328125 -4.0625 C 45.253906 -2.382812 43.101562 -1.144531 40.875 -0.34375 C 38.644531 0.445312 36.175781 0.84375 33.46875 0.84375 Z M 8 -60.953125 L 8 -66.21875 C 9.757812 -66.21875 11.132812 -66.734375 12.125 -67.765625 C 13.125 -68.796875 13.625 -70.191406 13.625 -71.953125 L 13.625 -82.578125 L 30.359375 -82.578125 L 30.359375 -74.703125 C 30.359375 -73.503906 30.054688 -72.304688 29.453125 -71.109375 C 28.859375 -69.910156 28.039062 -68.875 27 -68 C 25.96875 -67.125 24.738281 -66.53125 23.3125 -66.21875 Z M 8 -60.953125 "/></g></g></g><g fill="#737373" fill-opacity="1"><g transform="translate(457.293885, 137.624991)"><g><path d="M 46.484375 0.84375 C 40.429688 0.84375 34.832031 -0.210938 29.6875 -2.328125 C 24.550781 -4.441406 20.070312 -7.390625 16.25 -11.171875 C 12.425781 -14.960938 9.457031 -19.46875 7.34375 -24.6875 C 5.238281 -29.90625 4.1875 -35.617188 4.1875 -41.828125 C 4.1875 -48.046875 5.257812 -53.742188 7.40625 -58.921875 C 9.5625 -64.097656 12.550781 -68.578125 16.375 -72.359375 C 20.195312 -76.148438 24.675781 -79.082031 29.8125 -81.15625 C 34.957031 -83.226562 40.515625 -84.265625 46.484375 -84.265625 C 52.617188 -84.265625 58.253906 -83.207031 63.390625 -81.09375 C 68.535156 -78.976562 72.941406 -75.925781 76.609375 -71.9375 C 80.273438 -67.957031 82.984375 -63.140625 84.734375 -57.484375 L 68.609375 -52.46875 C 66.691406 -57.96875 63.835938 -62.128906 60.046875 -64.953125 C 56.265625 -67.785156 51.785156 -69.203125 46.609375 -69.203125 C 41.753906 -69.203125 37.429688 -68.066406 33.640625 -65.796875 C 29.859375 -63.523438 26.890625 -60.359375 24.734375 -56.296875 C 22.585938 -52.234375 21.515625 -47.410156 21.515625 -41.828125 C 21.515625 -36.253906 22.566406 -31.394531 24.671875 -27.25 C 26.785156 -23.101562 29.710938 -19.894531 33.453125 -17.625 C 37.203125 -15.351562 41.507812 -14.21875 46.375 -14.21875 C 51.46875 -14.21875 56.046875 -15.671875 60.109375 -18.578125 C 64.179688 -21.492188 67.210938 -25.539062 69.203125 -30.71875 L 85.578125 -26.890625 C 83.816406 -20.992188 80.984375 -15.972656 77.078125 -11.828125 C 73.179688 -7.691406 68.601562 -4.546875 63.34375 -2.390625 C 58.082031 -0.234375 52.460938 0.84375 46.484375 0.84375 Z M 46.484375 0.84375 "/></g></g></g><g fill="#737373" fill-opacity="1"><g transform="translate(542.03326, 137.624991)"><g><path d="M 37.640625 0.84375 C 31.273438 0.84375 25.5625 -0.550781 20.5 -3.34375 C 15.4375 -6.132812 11.410156 -10.078125 8.421875 -15.171875 C 5.429688 -20.273438 3.9375 -26.289062 3.9375 -33.21875 C 3.9375 -40.15625 5.453125 -46.148438 8.484375 -51.203125 C 11.515625 -56.265625 15.617188 -60.171875 20.796875 -62.921875 C 25.972656 -65.671875 31.75 -67.046875 38.125 -67.046875 C 44.5 -67.046875 50.253906 -65.671875 55.390625 -62.921875 C 60.535156 -60.171875 64.617188 -56.265625 67.640625 -51.203125 C 70.671875 -46.148438 72.1875 -40.15625 72.1875 -33.21875 C 72.1875 -26.289062 70.648438 -20.273438 67.578125 -15.171875 C 64.515625 -10.078125 60.375 -6.132812 55.15625 -3.34375 C 49.9375 -0.550781 44.097656 0.84375 37.640625 0.84375 Z M 37.640625 -13.859375 C 40.585938 -13.859375 43.375 -14.554688 46 -15.953125 C 48.632812 -17.347656 50.789062 -19.5 52.46875 -22.40625 C 54.144531 -25.3125 54.984375 -28.914062 54.984375 -33.21875 C 54.984375 -37.519531 54.164062 -41.101562 52.53125 -43.96875 C 50.894531 -46.84375 48.78125 -48.976562 46.1875 -50.375 C 43.601562 -51.769531 40.835938 -52.46875 37.890625 -52.46875 C 34.941406 -52.46875 32.210938 -51.769531 29.703125 -50.375 C 27.191406 -48.976562 25.140625 -46.84375 23.546875 -43.96875 C 21.953125 -41.101562 21.15625 -37.519531 21.15625 -33.21875 C 21.15625 -28.914062 21.910156 -25.3125 23.421875 -22.40625 C 24.941406 -19.5 26.953125 -17.347656 29.453125 -15.953125 C 31.960938 -14.554688 34.691406 -13.859375 37.640625 -13.859375 Z M 37.640625 -13.859375 "/></g></g></g><g fill="#737373" fill-opacity="1"><g transform="translate(612.430259, 137.624991)"><g><path d="M 33.703125 0.84375 C 27.890625 0.84375 22.75 -0.609375 18.28125 -3.515625 C 13.820312 -6.429688 10.316406 -10.457031 7.765625 -15.59375 C 5.210938 -20.738281 3.9375 -26.578125 3.9375 -33.109375 C 3.9375 -39.722656 5.210938 -45.578125 7.765625 -50.671875 C 10.316406 -55.773438 13.820312 -59.78125 18.28125 -62.6875 C 22.75 -65.59375 27.890625 -67.046875 33.703125 -67.046875 C 38.960938 -67.046875 43.539062 -65.691406 47.4375 -62.984375 C 51.34375 -60.273438 54.175781 -56.53125 55.9375 -51.75 L 55.9375 -88.4375 L 72.90625 -88.4375 L 72.90625 0 L 64.78125 0 C 62.070312 0 59.921875 -0.816406 58.328125 -2.453125 C 56.734375 -4.085938 55.9375 -6.257812 55.9375 -8.96875 L 55.9375 -14.578125 C 54.175781 -9.722656 51.34375 -5.9375 47.4375 -3.21875 C 43.539062 -0.507812 38.960938 0.84375 33.703125 0.84375 Z M 38.484375 -13.859375 C 41.585938 -13.859375 44.453125 -14.613281 47.078125 -16.125 C 49.710938 -17.644531 51.847656 -19.835938 53.484375 -22.703125 C 55.117188 -25.578125 55.9375 -29.046875 55.9375 -33.109375 C 55.9375 -37.253906 55.117188 -40.757812 53.484375 -43.625 C 51.847656 -46.488281 49.710938 -48.65625 47.078125 -50.125 C 44.453125 -51.601562 41.585938 -52.34375 38.484375 -52.34375 C 35.535156 -52.34375 32.722656 -51.601562 30.046875 -50.125 C 27.378906 -48.65625 25.226562 -46.488281 23.59375 -43.625 C 21.96875 -40.757812 21.15625 -37.253906 21.15625 -33.109375 C 21.15625 -29.046875 21.96875 -25.578125 23.59375 -22.703125 C 25.226562 -19.835938 27.378906 -17.644531 30.046875 -16.125 C 32.722656 -14.613281 35.535156 -13.859375 38.484375 -13.859375 Z M 38.484375 -13.859375 "/></g></g></g><g fill="#737373" fill-opacity="1"><g transform="translate(687.727571, 137.624991)"><g><path d="M 39.671875 0.84375 C 34.578125 0.84375 29.859375 0.046875 25.515625 -1.546875 C 21.171875 -3.140625 17.382812 -5.410156 14.15625 -8.359375 C 10.9375 -11.304688 8.425781 -14.832031 6.625 -18.9375 C 4.832031 -23.039062 3.9375 -27.601562 3.9375 -32.625 C 3.9375 -37.800781 4.851562 -42.5 6.6875 -46.71875 C 8.519531 -50.945312 11.066406 -54.570312 14.328125 -57.59375 C 17.597656 -60.625 21.34375 -62.957031 25.5625 -64.59375 C 29.789062 -66.226562 34.257812 -67.046875 38.96875 -67.046875 C 42.945312 -67.046875 46.6875 -66.507812 50.1875 -65.4375 C 53.695312 -64.363281 56.785156 -62.847656 59.453125 -60.890625 C 62.128906 -58.941406 64.203125 -56.613281 65.671875 -53.90625 C 67.148438 -51.195312 67.890625 -48.25 67.890625 -45.0625 C 67.890625 -40.914062 66.691406 -37.445312 64.296875 -34.65625 C 61.910156 -31.863281 58.742188 -29.648438 54.796875 -28.015625 C 50.847656 -26.390625 46.523438 -25.273438 41.828125 -24.671875 C 37.128906 -24.078125 32.507812 -23.859375 27.96875 -24.015625 C 27.25 -24.097656 26.410156 -24.140625 25.453125 -24.140625 C 24.492188 -24.140625 23.632812 -24.160156 22.875 -24.203125 C 22.125 -24.242188 21.628906 -24.265625 21.390625 -24.265625 C 21.867188 -22.109375 23.003906 -20.113281 24.796875 -18.28125 C 26.585938 -16.445312 28.796875 -15.03125 31.421875 -14.03125 C 34.054688 -13.039062 36.890625 -12.546875 39.921875 -12.546875 C 42.546875 -12.546875 45.09375 -12.984375 47.5625 -13.859375 C 50.03125 -14.734375 52.320312 -15.945312 54.4375 -17.5 C 56.550781 -19.0625 58.285156 -20.757812 59.640625 -22.59375 L 71.234375 -13.859375 C 68.679688 -10.515625 65.734375 -7.742188 62.390625 -5.546875 C 59.046875 -3.359375 55.457031 -1.742188 51.625 -0.703125 C 47.800781 0.328125 43.816406 0.84375 39.671875 0.84375 Z M 28.5625 -36.09375 C 31.195312 -36.09375 33.847656 -36.210938 36.515625 -36.453125 C 39.179688 -36.691406 41.648438 -37.148438 43.921875 -37.828125 C 46.191406 -38.503906 48.023438 -39.457031 49.421875 -40.6875 C 50.816406 -41.925781 51.515625 -43.503906 51.515625 -45.421875 C 51.515625 -47.015625 50.972656 -48.425781 49.890625 -49.65625 C 48.816406 -50.894531 47.382812 -51.890625 45.59375 -52.640625 C 43.800781 -53.398438 41.75 -53.78125 39.4375 -53.78125 C 35.769531 -53.78125 32.519531 -52.941406 29.6875 -51.265625 C 26.863281 -49.597656 24.65625 -47.425781 23.0625 -44.75 C 21.46875 -42.082031 20.59375 -39.316406 20.4375 -36.453125 C 21.394531 -36.367188 22.585938 -36.285156 24.015625 -36.203125 C 25.453125 -36.128906 26.96875 -36.09375 28.5625 -36.09375 Z M 28.5625 -36.09375 "/></g></g></g></svg>